<svg width="24" height="24" viewBox="0 0 450 380" fill="none" xmlns="http://www.w3.org/2000/svg">
<path d="M225,27.18c-71.6,26.73-120.35,95-120.35,174.45,0,102.73,83.27,186,186,186S476.65,304.36,476.65,201.63c0-79.46-48.75-147.72-120.35-174.45l-1.28-.6v-1.43c22.11,26.69,35.33,60.67,35.33,97.78,0,85.27-69.13,154.4-154.4,154.4S81.55,299.7,81.55,214.43c0-37.11,13.22-71.09,35.33-97.78V118l-1.28.6Zm0-27.18C100.73,0,0,100.73,0,225S100.73,450,225,450s225-100.73,225-225S349.27,0,225,0Zm0,90c-74.56,0-135,60.44-135,135s60.44,135,135,135,135-60.44,135-135S299.56,90,225,90Z" fill="white"/>
<path d="M225,72.9s-79,26.17-96.47,33.78l-.26.11v.3c.34,26,8.25,74.67,20.42,107.81,18.89,51.46,66.65,89.75,76.05,96.91l.25.19.26-.19c9.38-7.16,57.15-45.47,76-96.91,12.18-33.14,20.09-81.76,20.42-107.81v-.3l-.27-.11C304.05,99.07,225,73.13,225,72.9Z" fill="white"/>
</svg>
